<mxfile host="app.diagrams.net" agent="Mozilla/5.0 (Windows NT 10.0; Win64; x64) AppleWebKit/537.36 (KHTML, like Gecko) Chrome/138.0.0.0 Safari/537.36 SberBrowser/30.0.0.0" version="28.1.1">
  <diagram name="Страница — 1" id="r-9W6tsuZQw7gesfqgME">
    <mxGraphModel dx="1145" dy="682" grid="1" gridSize="10" guides="1" tooltips="1" connect="1" arrows="1" fold="1" page="1" pageScale="1" pageWidth="827" pageHeight="1169" math="0" shadow="0">
      <root>
        <mxCell id="0" />
        <mxCell id="1" parent="0" />
        <mxCell id="LGNIRcb-yrOo4oGDb-7A-1" value="&lt;h1&gt;Лабораторная работа №1. Построение ER-диаграмы&lt;/h1&gt;&lt;h2&gt;Задание&lt;/h2&gt;&lt;p class=&quot;MsoNormal&quot;&gt;Постройте диаграмму сущность-связь, предлагаемой предметной&lt;br/&gt;области, используя нотацию Чена и нотацию Мартина. В отчёте необходимо описать&lt;br/&gt;предлагаемые сущности предметной области и их атрибуты с указанием ключевых&lt;br/&gt;атрибутов. Приведенное в задание описание предметной области является&lt;br/&gt;приблизительным. Допускается уточнять список предлагаемых сущностей и&lt;br/&gt;атрибутов.&lt;/p&gt;&lt;h2&gt;Методические рекомендации&lt;/h2&gt;&lt;p class=&quot;MsoNormal&quot;&gt;Для подготовки диаграмм можно использовать любой графичекий&lt;br/&gt;редактор. Рекомендуется использовать on-line приложение (сервис)&amp;nbsp;&lt;a href=&quot;https://draw.io/&quot;&gt;draw.io&lt;/a&gt;, в котором есть библиотеки фигур для&lt;br/&gt;создания ER-диаграмм&lt;/p&gt;&lt;h2&gt;Варианты заданий&lt;/h2&gt;&lt;p class=&quot;MsoNormal&quot;&gt;&lt;b&gt;1. Библиотека&amp;nbsp;&lt;/b&gt;&lt;/p&gt;&lt;p class=&quot;MsoNormal&quot;&gt;Информационная система библиотеки, состоящей из двух&lt;br/&gt;филиалов, предназначена для учета книг, передаваемых читателям. Каждый филиал&lt;br/&gt;библиотеки имеет адрес (улица, дом) и наименование (минимальный набор&lt;br/&gt;атрибутов). При записи в библиотеку читатель предоставляет следующую&lt;br/&gt;информацию: ФИО, год рождения и адрес. Экземпляры одной и той же книги могут&lt;br/&gt;хранится в любом филиале или в обоих филиалах. Минимальный набор атрибутов&lt;br/&gt;книги:&lt;/p&gt;&lt;ul type=&quot;disc&quot; style=&quot;margin-top:0cm&quot;&gt;&lt;br/&gt; &lt;li class=&quot;MsoNormal&quot;&gt;наименование;&lt;/li&gt;&lt;br/&gt; &lt;li class=&quot;MsoNormal&quot;&gt;наименование&lt;br/&gt;     и адрес издательства;&lt;/li&gt;&lt;br/&gt; &lt;li class=&quot;MsoNormal&quot;&gt;тип&lt;br/&gt;     обложки (мягкая, твердая, суперобложка);&lt;/li&gt;&lt;br/&gt; &lt;li class=&quot;MsoNormal&quot;&gt;год&lt;br/&gt;     издания;&lt;/li&gt;&lt;br/&gt; &lt;li class=&quot;MsoNormal&quot;&gt;жанр&lt;br/&gt;     / тип;&lt;/li&gt;&lt;br/&gt; &lt;li class=&quot;MsoNormal&quot;&gt;количество&lt;br/&gt;     страниц.&lt;/li&gt;&lt;br/&gt;&lt;/ul&gt;&lt;p class=&quot;MsoNormal&quot;&gt;Простые запросы:&lt;/p&gt;&lt;ul type=&quot;disc&quot; style=&quot;margin-top:0cm&quot;&gt;&lt;br/&gt; &lt;li class=&quot;MsoNormal&quot;&gt;Список&lt;br/&gt;     книг в библиотеке (наименование, жанр, год издания)&lt;/li&gt;&lt;br/&gt; &lt;li class=&quot;MsoNormal&quot;&gt;Список&lt;br/&gt;     филиалов&lt;/li&gt;&lt;br/&gt; &lt;li class=&quot;MsoNormal&quot;&gt;Список&lt;br/&gt;     читателей&lt;/li&gt;&lt;br/&gt;&lt;/ul&gt;&lt;p class=&quot;MsoNormal&quot;&gt;Сложные запросы:&lt;/p&gt;&lt;ul type=&quot;disc&quot; style=&quot;margin-top:0cm&quot;&gt;&lt;br/&gt; &lt;li class=&quot;MsoNormal&quot;&gt;Читатели,&lt;br/&gt;     у которых есть книги на руках&lt;/li&gt;&lt;br/&gt; &lt;li class=&quot;MsoNormal&quot;&gt;Книги&lt;br/&gt;     у конкретного читателя&lt;/li&gt;&lt;br/&gt;&lt;/ul&gt;&lt;p class=&quot;MsoNormal&quot;&gt;&lt;b&gt;2. Аптека&amp;nbsp;&amp;nbsp;&lt;/b&gt;&lt;/p&gt;&lt;ul type=&quot;disc&quot; style=&quot;margin-top:0cm&quot;&gt;&lt;br/&gt; &lt;li class=&quot;MsoNormal&quot;&gt;Лекарство&lt;/li&gt;&lt;br/&gt; &lt;ul type=&quot;circle&quot; style=&quot;margin-top:0cm&quot;&gt;&lt;br/&gt;  &lt;li class=&quot;MsoNormal&quot;&gt;Наименование&lt;/li&gt;&lt;br/&gt;  &lt;li class=&quot;MsoNormal&quot;&gt;Производитель&lt;/li&gt;&lt;br/&gt;  &lt;li class=&quot;MsoNormal&quot;&gt;Поставщик&lt;/li&gt;&lt;br/&gt;  &lt;li class=&quot;MsoNormal&quot;&gt;Тип&lt;/li&gt;&lt;br/&gt;  &lt;li class=&quot;MsoNormal&quot;&gt;Цена&lt;br/&gt;      (может изменяться)&lt;/li&gt;&lt;br/&gt;  &lt;li class=&quot;MsoNormal&quot;&gt;Возможна&lt;br/&gt;      ли продажа без рецепта&lt;/li&gt;&lt;br/&gt; &lt;/ul&gt;&lt;br/&gt; &lt;li class=&quot;MsoNormal&quot;&gt;Покупатель&lt;/li&gt;&lt;br/&gt; &lt;ul type=&quot;circle&quot; style=&quot;margin-top:0cm&quot;&gt;&lt;br/&gt;  &lt;li class=&quot;MsoNormal&quot;&gt;ФИО&lt;/li&gt;&lt;br/&gt;  &lt;li class=&quot;MsoNormal&quot;&gt;Телефон&lt;/li&gt;&lt;br/&gt; &lt;/ul&gt;&lt;br/&gt; &lt;li class=&quot;MsoNormal&quot;&gt;Поставщик&lt;/li&gt;&lt;br/&gt; &lt;ul type=&quot;circle&quot; style=&quot;margin-top:0cm&quot;&gt;&lt;br/&gt;  &lt;li class=&quot;MsoNormal&quot;&gt;Наименование&lt;/li&gt;&lt;br/&gt;  &lt;li class=&quot;MsoNormal&quot;&gt;ИНН&lt;/li&gt;&lt;br/&gt;  &lt;li class=&quot;MsoNormal&quot;&gt;Адрес&lt;/li&gt;&lt;br/&gt; &lt;/ul&gt;&lt;br/&gt;&lt;/ul&gt;&lt;p class=&quot;MsoNormal&quot;&gt;Информационная система предназначена для учета движения&lt;br/&gt;товаров от поставщиков в несколько филиалов аптечной сети, продажи товаров&lt;br/&gt;покупателям.&lt;/p&gt;&lt;p class=&quot;MsoNormal&quot;&gt;&lt;b&gt;3. Больница&amp;nbsp;&amp;nbsp;&lt;/b&gt;&lt;/p&gt;&lt;p class=&quot;MsoNormal&quot;&gt;Информационная система больницы (стационара) содержит&lt;br/&gt;информацию о врачах больницы и о пациентах. Запись о каждом враче содержит:&lt;br/&gt;ФИО, адрес, дату рождения, паспортные данные, специальность, стаж.&lt;/p&gt;&lt;p class=&quot;MsoNormal&quot;&gt;Информация о пациенте - ФИО - Дата рождения - Полис - Дата&lt;br/&gt;поступления - Дата выписки - Диагноз - Лечащий врач - Отделение - Палата&lt;/p&gt;&lt;p class=&quot;MsoNormal&quot;&gt;&lt;b&gt;4. Предприятие&amp;nbsp;&amp;nbsp;&lt;/b&gt;&lt;/p&gt;&lt;p class=&quot;MsoNormal&quot;&gt;Малое предприятие разрабатывает информационную систему,&lt;br/&gt;частью которой является информационная система учета персонала. В&lt;br/&gt;информационной системе хранится следующая информация о сотруднике:&lt;/p&gt;&lt;ul type=&quot;disc&quot; style=&quot;margin-top:0cm&quot;&gt;&lt;br/&gt; &lt;li class=&quot;MsoNormal&quot;&gt;ФИО&lt;/li&gt;&lt;br/&gt; &lt;li class=&quot;MsoNormal&quot;&gt;Дата&lt;br/&gt;     рождения&lt;/li&gt;&lt;br/&gt; &lt;li class=&quot;MsoNormal&quot;&gt;Образование&lt;/li&gt;&lt;br/&gt; &lt;li class=&quot;MsoNormal&quot;&gt;Образовательное&lt;br/&gt;     учреждение, год окончания, специальность&lt;/li&gt;&lt;br/&gt; &lt;li class=&quot;MsoNormal&quot;&gt;Стаж&lt;br/&gt;     работы&lt;/li&gt;&lt;br/&gt;&lt;/ul&gt;&lt;p class=&quot;MsoNormal&quot;&gt;А также информация о его назначениях, включая информацию о&lt;br/&gt;должности, окладе, номере и дате приказа, по которому он переводится на другую&lt;br/&gt;должность, номер отдела. В информационной системе учитывается отпуски&lt;br/&gt;сотрудников и больничные листы, с указанием периодов временной&lt;br/&gt;нетрудоспособности сотрудников.&lt;/p&gt;&lt;p class=&quot;MsoNormal&quot;&gt;&lt;b&gt;5. Курьерская доставка&amp;nbsp;&amp;nbsp;&lt;/b&gt;&lt;/p&gt;&lt;p class=&quot;MsoNormal&quot;&gt;Организация осуществляет курьерскую доставку товаров.&lt;br/&gt;Филиалы организации – пункты приема и выдачи отправлений – расположены в&lt;br/&gt;нескольких городах. Для отправки товара может самостоятельно прийти в филиал&lt;br/&gt;организации и отправить товар оплатив стоимость доставки ил вызвать курьера,&lt;br/&gt;который заберет посылку после оплаты услуг курьера и услуги доставки. Стоимость&lt;br/&gt;услуг курьера фиксирована. Стоимость доставки различна для каждой пары городов.&lt;br/&gt;Товар может быть доставлен до пункта выдачи или по адресу получается.&lt;br/&gt;Получатель и отправитель могут иметь несколько адресов приема товара для&lt;br/&gt;доставки и его получения.&lt;/p&gt;&lt;p class=&quot;MsoNormal&quot;&gt;&lt;b&gt;6. Повышение квалификации&amp;nbsp;&amp;nbsp;&lt;/b&gt;&lt;/p&gt;&lt;p class=&quot;MsoNormal&quot;&gt;Для сотрудников университета организованы курсы по повышению&lt;br/&gt;квалификации. Курс ведёт также сотрудник университета. Курс характеризуется&lt;br/&gt;датой начала, датой окончания, наименованием. Каждый сотрудник университета&lt;br/&gt;может посещать несколько курсов. По окончании курса выдается свидетельство.&lt;/p&gt;&lt;p class=&quot;MsoNormal&quot;&gt;&lt;b&gt;7. Научная конференция&amp;nbsp;&amp;nbsp;&lt;/b&gt;&lt;/p&gt;&lt;p class=&quot;MsoNormal&quot;&gt;В университете организуется научная конференция, по&lt;br/&gt;результатам проведения которой публикуется сборник статей. Конференция имеет&lt;br/&gt;наименование и дату начала и дату окончания. Каждый участник конференции&lt;br/&gt;отправляет в адрес конференции статью, которая характеризуется наименованием,&lt;br/&gt;списком авторов и количеством листов, а также презентацию наименование которой&lt;br/&gt;и список авторов совпадает с наименованием статьи. Конференция разделена на&lt;br/&gt;секции. Заседания секций происходит в разных аудиториях с 9:00 до 17:00 с&lt;br/&gt;перерывом с 12:00 до 13:00. На представление доклада выделяется 30 минут.&lt;/p&gt;&lt;p class=&quot;MsoNormal&quot;&gt;&lt;b&gt;8. Прокат велосипедов&amp;nbsp;&amp;nbsp;&lt;/b&gt;&lt;/p&gt;&lt;p class=&quot;MsoNormal&quot;&gt;Компания по прокату велосипедов имеет филиалы в нескольких&lt;br/&gt;городах. Каждый филиал имеет парк и нескольких сотен велосипедов разных трех&lt;br/&gt;марок. Для аренды велосипеда клиенты используют мобильное приложение, в котором&lt;br/&gt;указывается имя клиента и привязанная к приложению банковская карта или&lt;br/&gt;электронный кошелек. Для каждого типа велосипеда существует собственная&lt;br/&gt;стоимость одного часа аренды, котора также зависит от города, где находится&lt;br/&gt;филиал. В информационной системе учитывается продолжительность аренды,&lt;br/&gt;стоимость услуги (после возвращения велосипеда).&lt;/p&gt;&lt;p class=&quot;MsoNormal&quot;&gt;&lt;b&gt;9. Футбольный турнир (РФПЛ)&amp;nbsp;&amp;nbsp;&lt;/b&gt;&lt;/p&gt;&lt;p class=&quot;MsoNormal&quot;&gt;Информационная система поддержки проведения футбольного&lt;br/&gt;турнира. Учёт команд, игроков, тренеров, матчей и их результатов (голы, авторы&lt;br/&gt;голов), стадионов, количества зрителей каждой игры.&lt;/p&gt;&lt;p class=&quot;MsoNormal&quot;&gt;&lt;b&gt;10. Пиццерия&amp;nbsp;&amp;nbsp;&lt;/b&gt;&lt;/p&gt;&lt;p class=&quot;MsoNormal&quot;&gt;Сеть пиццерий доставляет пиццы клиентам, которые заказывают&lt;br/&gt;их по телефону или через интернет. Имеется ограниченный набор типов пицц.&lt;br/&gt;Каждый тип пиццы имеет свой набор продуктов для изготовления и количество.&lt;br/&gt;Заказ доставляется курьером по адресу, указанному клиентом.&lt;/p&gt;&lt;p class=&quot;MsoNormal&quot;&gt;&lt;b&gt;11. Кулинарная книга&amp;nbsp;&amp;nbsp;&lt;/b&gt;&lt;/p&gt;&lt;ul type=&quot;disc&quot; style=&quot;margin-top:0cm&quot;&gt;&lt;br/&gt; &lt;li class=&quot;MsoNormal&quot;&gt;Рецепты&lt;/li&gt;&lt;br/&gt; &lt;ul type=&quot;circle&quot; style=&quot;margin-top:0cm&quot;&gt;&lt;br/&gt;  &lt;li class=&quot;MsoNormal&quot;&gt;наименование&lt;/li&gt;&lt;br/&gt;  &lt;li class=&quot;MsoNormal&quot;&gt;описание&lt;/li&gt;&lt;br/&gt;  &lt;li class=&quot;MsoNormal&quot;&gt;источник&lt;/li&gt;&lt;br/&gt;  &lt;li class=&quot;MsoNormal&quot;&gt;тип&lt;/li&gt;&lt;br/&gt;  &lt;li class=&quot;MsoNormal&quot;&gt;время&lt;br/&gt;      приготовления&lt;/li&gt;&lt;br/&gt; &lt;/ul&gt;&lt;br/&gt; &lt;li class=&quot;MsoNormal&quot;&gt;Компоненты&lt;br/&gt;     рецепта&lt;/li&gt;&lt;br/&gt; &lt;ul type=&quot;circle&quot; style=&quot;margin-top:0cm&quot;&gt;&lt;br/&gt;  &lt;li class=&quot;MsoNormal&quot;&gt;продукт&lt;/li&gt;&lt;br/&gt;  &lt;li class=&quot;MsoNormal&quot;&gt;количество&lt;/li&gt;&lt;br/&gt; &lt;/ul&gt;&lt;br/&gt; &lt;li class=&quot;MsoNormal&quot;&gt;Справочник&lt;br/&gt;     продуктов&lt;/li&gt;&lt;br/&gt; &lt;ul type=&quot;circle&quot; style=&quot;margin-top:0cm&quot;&gt;&lt;br/&gt;  &lt;li class=&quot;MsoNormal&quot;&gt;наименование&lt;/li&gt;&lt;br/&gt;  &lt;li class=&quot;MsoNormal&quot;&gt;цена&lt;/li&gt;&lt;br/&gt;  &lt;li class=&quot;MsoNormal&quot;&gt;единица&lt;br/&gt;      измерения&lt;/li&gt;&lt;br/&gt;  &lt;li class=&quot;MsoNormal&quot;&gt;калорийность&lt;/li&gt;&lt;br/&gt; &lt;/ul&gt;&lt;br/&gt;&lt;/ul&gt;&lt;p class=&quot;MsoNormal&quot;&gt;&lt;b&gt;12. Поликлиника&amp;nbsp;&amp;nbsp;&lt;/b&gt;&lt;/p&gt;&lt;p class=&quot;MsoNormal&quot;&gt;Информационная система сети поликлиник содержит информацию о&lt;br/&gt;врачах и о пациентах. Запись о каждом враче содержит: ФИО, адрес, дату&lt;br/&gt;рождения, паспортные данные, специальность, стаж. Информация о пациенте&lt;br/&gt;(посетителе): ФИО, дата рождения, номер полиса. Информационная система должна&lt;br/&gt;вести учет посещений (дата, врач, посетитель, диагноз).&lt;/p&gt;&lt;p class=&quot;MsoNormal&quot;&gt;&lt;b&gt;13. Сессия&amp;nbsp;&amp;nbsp;&lt;/b&gt;&lt;/p&gt;&lt;p class=&quot;MsoNormal&quot;&gt;Студенты, экзаменаторы (преподаватели), зачетные книжки,&lt;br/&gt;экзамены, зачеты.&lt;/p&gt;&lt;p class=&quot;MsoNormal&quot;&gt;&lt;b&gt;14. Расписание занятий&amp;nbsp;&amp;nbsp;&lt;/b&gt;&lt;/p&gt;&lt;ul type=&quot;disc&quot; style=&quot;margin-top:0cm&quot;&gt;&lt;br/&gt; &lt;li class=&quot;MsoNormal&quot;&gt;Расписание&lt;/li&gt;&lt;br/&gt; &lt;ul type=&quot;circle&quot; style=&quot;margin-top:0cm&quot;&gt;&lt;br/&gt;  &lt;li class=&quot;MsoNormal&quot;&gt;неделя&lt;/li&gt;&lt;br/&gt;  &lt;li class=&quot;MsoNormal&quot;&gt;день&lt;/li&gt;&lt;br/&gt;  &lt;li class=&quot;MsoNormal&quot;&gt;пара&lt;/li&gt;&lt;br/&gt;  &lt;li class=&quot;MsoNormal&quot;&gt;группа&lt;/li&gt;&lt;br/&gt;  &lt;li class=&quot;MsoNormal&quot;&gt;преподаватель&lt;/li&gt;&lt;br/&gt;  &lt;li class=&quot;MsoNormal&quot;&gt;вид&lt;br/&gt;      занятий&lt;/li&gt;&lt;br/&gt;  &lt;li class=&quot;MsoNormal&quot;&gt;аудитория&lt;/li&gt;&lt;br/&gt; &lt;/ul&gt;&lt;br/&gt; &lt;li class=&quot;MsoNormal&quot;&gt;Преподаватель&lt;/li&gt;&lt;br/&gt; &lt;ul type=&quot;circle&quot; style=&quot;margin-top:0cm&quot;&gt;&lt;br/&gt;  &lt;li class=&quot;MsoNormal&quot;&gt;кафедра&lt;/li&gt;&lt;br/&gt;  &lt;li class=&quot;MsoNormal&quot;&gt;должность&lt;/li&gt;&lt;br/&gt;  &lt;li class=&quot;MsoNormal&quot;&gt;ученая&lt;br/&gt;      степень&lt;/li&gt;&lt;br/&gt; &lt;/ul&gt;&lt;br/&gt; &lt;li class=&quot;MsoNormal&quot;&gt;Пара&lt;/li&gt;&lt;br/&gt; &lt;ul type=&quot;circle&quot; style=&quot;margin-top:0cm&quot;&gt;&lt;br/&gt;  &lt;li class=&quot;MsoNormal&quot;&gt;номер&lt;/li&gt;&lt;br/&gt;  &lt;li class=&quot;MsoNormal&quot;&gt;время&lt;br/&gt;      начала&lt;/li&gt;&lt;br/&gt;  &lt;li class=&quot;MsoNormal&quot;&gt;время&lt;br/&gt;      окончания&lt;/li&gt;&lt;br/&gt; &lt;/ul&gt;&lt;br/&gt; &lt;li class=&quot;MsoNormal&quot;&gt;Аудитория&lt;/li&gt;&lt;br/&gt; &lt;ul type=&quot;circle&quot; style=&quot;margin-top:0cm&quot;&gt;&lt;br/&gt;  &lt;li class=&quot;MsoNormal&quot;&gt;корпус&lt;/li&gt;&lt;br/&gt;  &lt;li class=&quot;MsoNormal&quot;&gt;номер&lt;/li&gt;&lt;br/&gt; &lt;/ul&gt;&lt;br/&gt; &lt;li class=&quot;MsoNormal&quot;&gt;Группа&lt;/li&gt;&lt;br/&gt; &lt;ul type=&quot;circle&quot; style=&quot;margin-top:0cm&quot;&gt;&lt;br/&gt;  &lt;li class=&quot;MsoNormal&quot;&gt;номер&lt;/li&gt;&lt;br/&gt;  &lt;li class=&quot;MsoNormal&quot;&gt;количество&lt;br/&gt;      студентов&lt;/li&gt;&lt;br/&gt; &lt;/ul&gt;&lt;br/&gt;&lt;/ul&gt;&lt;p class=&quot;MsoNormal&quot;&gt;&lt;b&gt;15. Социальная сеть&amp;nbsp;&amp;nbsp;&lt;/b&gt;&lt;/p&gt;&lt;p class=&quot;MsoNormal&quot;&gt;Изобразите диаграмму сущность-связь для социальной сети&lt;br/&gt;ВКонтакте.&lt;/p&gt;&lt;p class=&quot;MsoNormal&quot;&gt;&lt;b&gt;16. Интернет-магазин мебели&amp;nbsp;&amp;nbsp;&lt;/b&gt;&lt;/p&gt;&lt;p class=&quot;MsoNormal&quot;&gt;Интернет-магазин мебели позволяет покупателю выбрать на&lt;br/&gt;сайте товар оплатить его, заказать при необходимости доставку товара, оплатить&lt;br/&gt;его на сайте (способ оплаты) или после доставки, заказать сборку товара.&lt;/p&gt;&lt;p class=&quot;MsoNormal&quot;&gt;&lt;b&gt;17. Онлайн кинотеатр&amp;nbsp;&amp;nbsp;&lt;/b&gt;&lt;/p&gt;&lt;p class=&quot;MsoNormal&quot;&gt;В онлайн-кинотеатре можно смотреть фильмы по подписке или&lt;br/&gt;покупать отдельные фильмы для просмотра в любое время или брать фильмы на&lt;br/&gt;прокат, для просмотра в течение одного месяца после оплаты. Подписка может быть&lt;br/&gt;индивидуальной или семейной на несколько пользователей (до пяти), связанных с&lt;br/&gt;“администратором” семьи. Каждый пользователь имеет жанровые предпочтения.&lt;br/&gt;Информационная система должна вести учет пользователей, их подписок, покупок,&lt;br/&gt;просмотренных фильмов, жанровых предпочтений.&lt;/p&gt;&lt;p class=&quot;MsoNormal&quot;&gt;&lt;b&gt;18. Бронирование авиабилетов&amp;nbsp;&amp;nbsp;&lt;/b&gt;&lt;/p&gt;&lt;p class=&quot;MsoNormal&quot;&gt;На сайте авиакомпании пассажир может заказать билеты для&lt;br/&gt;себя и еще нескольких человек для перелета из пункта А в пункт Б (может быть&lt;br/&gt;несколько перелетов) на определенную дату. При покупке билета для каждого&lt;br/&gt;пассажира указывается вес багажа и тип меню для обеда на борту самолета.&lt;/p&gt;&lt;p class=&quot;MsoNormal&quot;&gt;&lt;b&gt;19. Музыкальные альбомы&amp;nbsp;&amp;nbsp;&lt;/b&gt;&lt;/p&gt;&lt;p class=&quot;MsoNormal&quot;&gt;Коллекция состоит из музыкальных альбомов, которые могут&lt;br/&gt;быть записаны на Audio CD, или на жестком диске. Каждый альбом создан одним&lt;br/&gt;автором (исполнителем). У каждого исполнителя может быть несколько альбомов.&lt;br/&gt;Каждый альбом содержит несколько треков (композиций), которые имеют&lt;br/&gt;определенную длину и порядок в альбоме. Каждый трек может быть только в одном&lt;br/&gt;альбоме.&lt;/p&gt;&lt;p class=&quot;MsoNormal&quot;&gt;&lt;b&gt;20. Бронирование авиабилетов&amp;nbsp;&amp;nbsp;&lt;/b&gt;&lt;/p&gt;&lt;p class=&quot;MsoNormal&quot;&gt;База данных рейсов хранит информацию о парке авиакомпании,&lt;br/&gt;рейсах и бронировании мест. У авиакомпании есть один или несколько самолетов.&lt;br/&gt;Самолет имеет номер модели, уникальный регистрационный номер и возможность&lt;br/&gt;принять одного или нескольких пассажиров. У рейса самолета есть уникальный&lt;br/&gt;номер рейса, аэропорт вылета, аэропорт назначения, дата и время вылета, а также&lt;br/&gt;дата и время прибытия. Каждый полет выполняется одним самолетом. Пассажир&lt;br/&gt;назвал имена, фамилию и уникальный адрес электронной почты. Пассажир может&lt;br/&gt;забронировать место на рейс.&lt;/p&gt;&lt;p class=&quot;MsoNormal&quot;&gt;&lt;b&gt;21. Курсы и студенты&amp;nbsp;&amp;nbsp;&lt;/b&gt;&lt;/p&gt;&lt;p class=&quot;MsoNormal&quot;&gt;В базе данных университета хранится информация о студентах,&lt;br/&gt;курсах, семестре, в котором студент проходил определенный курс (а также о его&lt;br/&gt;оценках, если он его закончил), а также о том, в какую программу обучения&lt;br/&gt;записан каждый студент.&lt;/p&gt;&lt;p class=&quot;MsoNormal&quot;&gt;Университет предлагает одну или несколько программ.&lt;br/&gt;Программа состоит из одного или нескольких курсов. Студент должен зарегистрироваться&lt;br/&gt;в программе. Студент проходит курсы, которые являются частью ее программы. У&lt;br/&gt;программы есть название, идентификатор программы, общее количество баллов,&lt;br/&gt;необходимых для получения диплома, и год ее начала. У курса есть название,&lt;br/&gt;идентификатор курса, значение кредитной точки и год, когда он начался. Студенты&lt;br/&gt;имеют одно или несколько имен, фамилию, идентификатор студента, дату рождения и&lt;br/&gt;год, когда они впервые поступили. Когда студент проходит курс, записывается год&lt;br/&gt;и семестр, в котором он пытался его пройти. Когда он заканчивает курс,&lt;br/&gt;записывается оценка (например, A или B) и оценка (например, 60 процентов).&lt;br/&gt;Каждый курс в программе состоит из года (например, год 1) и семестра (например,&lt;br/&gt;1 семестр).&lt;/p&gt;&lt;p class=&quot;MsoNormal&quot;&gt;&lt;b&gt;22. Компания и сотрудники&amp;nbsp;&amp;nbsp;&lt;/b&gt;&lt;/p&gt;&lt;p class=&quot;MsoNormal&quot;&gt;В компании есть несколько отделов. Каждый отдел имеет&lt;br/&gt;уникальную идентификацию, название, местонахождение офиса и конкретного&lt;br/&gt;сотрудника, который управляет отделом. Отдел контролирует ряд проектов, каждый&lt;br/&gt;из которых имеет уникальное имя, уникальный номер и бюджет. У каждого&lt;br/&gt;сотрудника есть имя, идентификационный номер, адрес, зарплата и дата рождения.&lt;br/&gt;Сотрудник назначен в один отдел, но может участвовать в нескольких проектах.&lt;br/&gt;необходимо вести учёт дату начала работы сотрудника в каждом проекте,&lt;br/&gt;непосредственного руководителя каждого сотрудника. Необходимо хранить&lt;br/&gt;информацию об иждивенцах каждого сотрудника. У каждого иждивенца есть имя, дата&lt;br/&gt;рождения и отношения с работником.&lt;/p&gt;&lt;p class=&quot;MsoNormal&quot;&gt;&lt;b&gt;23. Галереи&amp;nbsp;&amp;nbsp;&lt;/b&gt;&lt;/p&gt;&lt;p class=&quot;MsoNormal&quot;&gt;Галереи хранят информацию о художниках, их именах (которые&lt;br/&gt;уникальны), местах рождения, возрасте и стиле искусства. У каждого произведения&lt;br/&gt;искусства есть автор, год изготовления, название, вид произведения (например,&lt;br/&gt;живопись, литография, скульптура, фотография) и цена. Произведения искусства&lt;br/&gt;также подразделяются на группы различных видов, например, портреты, натюрморты,&lt;br/&gt;произведения Пикассо или произведения 19-го века; произведение может&lt;br/&gt;принадлежать более чем одной группе. Каждая группа идентифицируется именем,&lt;br/&gt;которое описывает группу. Наконец, галереи хранят информацию о клиентах. Для&lt;br/&gt;каждого покупателя галереи сохраняют уникальное имя, адрес, общую сумму денег,&lt;br/&gt;потраченных в галерее, а также художников и групп искусства, которые нравятся&lt;br/&gt;покупателю.&lt;/p&gt;&lt;p class=&quot;MsoNormal&quot;&gt;&lt;i&gt;&lt;span lang=&quot;EN-US&quot;&gt;by&lt;br/&gt;Jennifer Polack, Professor of Computer Science at University of Mary Washington&lt;/span&gt;&lt;/i&gt;&lt;span lang=&quot;EN-US&quot;&gt;&lt;/span&gt;&lt;/p&gt;&lt;p class=&quot;MsoNormal&quot;&gt;&lt;b&gt;24. Сеть отелей&amp;nbsp;&amp;nbsp;&lt;/b&gt;&lt;/p&gt;&lt;p class=&quot;MsoNormal&quot;&gt;Сеть отелей под названием B&amp;amp;B состоит из множества&lt;br/&gt;филиалов отелей по всей стране. В каждом отеле есть различные номера. Каждый&lt;br/&gt;номер имеет свою цену в зависимости от типа. B&amp;amp;B хранит информацию о своих&lt;br/&gt;гостях, чтобы можно было отправлять им письма и электронные письма о специальных&lt;br/&gt;предложениях. Должна храниться информация о бронировании. Эта информация&lt;br/&gt;включает в себя дату, с которой гость забронировал номер и дату отъезда.&lt;br/&gt;Необходимо знать количество дней.&lt;/p&gt;&lt;p class=&quot;MsoNormal&quot;&gt;&lt;b&gt;25. Прокат автомобилей&amp;nbsp;&amp;nbsp;&lt;/b&gt;&lt;/p&gt;&lt;p class=&quot;MsoNormal&quot;&gt;Компания предлагает ряд моделей автомобилей на прокат.&lt;br/&gt;Клиент может забронировать любую модель или конкретную модель автомобиля. Бронь&lt;br/&gt;относится к к модели, но не к конкретному автомобилю этой модели. Когда&lt;br/&gt;автомобиль этой модели станет доступным, он будет проведен для клиента. Когда&lt;br/&gt;клиент берет автомобиль, то эта информация связывается с конкретным&lt;br/&gt;автомобилем, а не на моделью поскольку у компании может быть несколько&lt;br/&gt;автомобилей одной модели. Необходимо вести учет даны начала использования&lt;br/&gt;автомобиля и продолжительности.&lt;/p&gt;&lt;p class=&quot;MsoNormal&quot;&gt;&lt;b&gt;26. КХЛ&amp;nbsp;&amp;nbsp;&lt;/b&gt;&lt;/p&gt;&lt;p class=&quot;MsoNormal&quot;&gt;В континентальной хоккейной лиге много команд. У каждой&lt;br/&gt;команды есть название, город, тренер, капитан и набор игроков, каждый игрок&lt;br/&gt;принадлежит только одной команде. У каждого игрока есть имя, позиция (например,&lt;br/&gt;левое крыло или вратарь), уровень квалификации и набор записей травм. Капитан&lt;br/&gt;команды также игрок. Игра проводится между двумя командами (хозяева и гости) и&lt;br/&gt;имеет дату (например, 11 мая 1999 г.) и счет (например, от 4:2).&lt;/p&gt;&lt;p class=&quot;MsoNormal&quot;&gt;&lt;b&gt;27. Книжный онлайн-магазин&amp;nbsp;&amp;nbsp;&lt;/b&gt;&lt;/p&gt;&lt;p class=&quot;MsoNormal&quot;&gt;В онлайн-магазине продаются книги (включая электронные).&lt;br/&gt;Основные атрибуты книги: Автор, Наименование, Издатель, Количество страниц, Тип&lt;br/&gt;обложки, Масса (для оценки массы заказа). Покупатель выбирает книги, формирует&lt;br/&gt;и оплачивает заказ. Книги доставляются по указанному адресу. В одном заказе&lt;br/&gt;могут быть как “бумажные” книги, так и электронные. Электронные книги&lt;br/&gt;отправляются по электронной почте. Информационная система должна учитывать&lt;br/&gt;время формирования заказа, время его оплаты и время доставки.&lt;/p&gt;&lt;p class=&quot;MsoNormal&quot;&gt;&lt;b&gt;28. Мастерская&amp;nbsp;&amp;nbsp;&lt;/b&gt;&lt;/p&gt;&lt;p class=&quot;MsoNormal&quot;&gt;Мастерская производит ремонт бытовой техники разных типов&lt;br/&gt;(придумайте не менее трех). Клиент привозит неисправную технику и оформляет&lt;br/&gt;факт передачи техники с указанием ее необходимых свойств. После приема техники&lt;br/&gt;мастер (определенный сотрудник мастерской) в течение трех дней оценивает&lt;br/&gt;сложность ремонта и формирует список заменяемых частей и список действий&lt;br/&gt;(например: разборка и сборка, работа по замене экрана), которые определяют&lt;br/&gt;стоимость ремонта. Клиента уведомляют о стоимости ремонта и получают согласие&lt;br/&gt;на дальнейшие действия после первичного анализа (диагностики). Ремонт может&lt;br/&gt;быть выполнен “по гарантии”, в этом случае стоимость ремонта клиентом не&lt;br/&gt;оплачивается.&lt;/p&gt;&lt;p class=&quot;MsoNormal&quot;&gt;&lt;b&gt;29. Мастерская&amp;nbsp;&amp;nbsp;&lt;/b&gt;&lt;/p&gt;&lt;p class=&quot;MsoNormal&quot;&gt;Информационная система ЖЭКа обслуживает группу домов на&lt;br/&gt;нескольких улицах. Заявка поступает от квартиры. Заявку принимает диспетчер, он&lt;br/&gt;задает номер и дату поступления заявки, определяет тип заявки и срок ее&lt;br/&gt;выполнения. Заявку выполняет бригада специалистов. Каждый специалист может&lt;br/&gt;работать только в одной бригаде, у каждой бригады есть бригадир.&lt;/p&gt;&lt;p class=&quot;MsoNormal&quot;&gt;&lt;b&gt;30. Парки&amp;nbsp;&amp;nbsp;&lt;/b&gt;&lt;/p&gt;&lt;p class=&quot;MsoNormal&quot;&gt;Информационная система “Парки города” хранит информацию о&lt;br/&gt;парках. Каждый парк имеет собственное имя. В парке высажены определённые&lt;br/&gt;насаждения. База данных должна хранить информацию о количестве насаждений&lt;br/&gt;каждого типа. В парке могут находиться фонтаны и павильоны.&lt;/p&gt;&lt;p class=&quot;MsoNormal&quot;&gt;Атрибуты парка:&lt;/p&gt;&lt;ul type=&quot;disc&quot; style=&quot;margin-top:0cm&quot;&gt;&lt;br/&gt; &lt;li class=&quot;MsoNormal&quot;&gt;наименование,&lt;/li&gt;&lt;br/&gt; &lt;li class=&quot;MsoNormal&quot;&gt;площадь,&lt;/li&gt;&lt;br/&gt; &lt;li class=&quot;MsoNormal&quot;&gt;место&lt;br/&gt;     нахождения (адрес).&lt;/li&gt;&lt;br/&gt;&lt;/ul&gt;&lt;p class=&quot;MsoNormal&quot;&gt;Насаждения парка&lt;/p&gt;&lt;ul type=&quot;disc&quot; style=&quot;margin-top:0cm&quot;&gt;&lt;br/&gt; &lt;li class=&quot;MsoNormal&quot;&gt;тип&lt;br/&gt;     культуры,&lt;/li&gt;&lt;br/&gt; &lt;li class=&quot;MsoNormal&quot;&gt;наименование,&lt;/li&gt;&lt;br/&gt; &lt;li class=&quot;MsoNormal&quot;&gt;средняя&lt;br/&gt;     продолжительность жизни.&lt;/li&gt;&lt;br/&gt;&lt;/ul&gt;&lt;p class=&quot;MsoNormal&quot;&gt;Фонтан&lt;/p&gt;&lt;ul type=&quot;disc&quot; style=&quot;margin-top:0cm&quot;&gt;&lt;br/&gt; &lt;li class=&quot;MsoNormal&quot;&gt;шифр,&lt;/li&gt;&lt;br/&gt; &lt;li class=&quot;MsoNormal&quot;&gt;дата&lt;br/&gt;     постройки,&lt;/li&gt;&lt;br/&gt; &lt;li class=&quot;MsoNormal&quot;&gt;расход&lt;br/&gt;     воды (максимальный и нормальный),&lt;/li&gt;&lt;br/&gt; &lt;li class=&quot;MsoNormal&quot;&gt;площадь.&lt;/li&gt;&lt;br/&gt;&lt;/ul&gt;&lt;p class=&quot;MsoNormal&quot;&gt;Павильон&lt;/p&gt;&lt;ul type=&quot;disc&quot; style=&quot;margin-top:0cm&quot;&gt;&lt;br/&gt; &lt;li class=&quot;MsoNormal&quot;&gt;наименование,&lt;/li&gt;&lt;br/&gt; &lt;li class=&quot;MsoNormal&quot;&gt;тип&lt;br/&gt;     (кафе, продуктовый, развлекательный, прокат вещей),&lt;/li&gt;&lt;br/&gt; &lt;li class=&quot;MsoNormal&quot;&gt;занимаемая&lt;br/&gt;     площадь.&lt;/li&gt;&lt;br/&gt;&lt;/ul&gt;&lt;p&gt;&lt;br/&gt;&lt;br/&gt;&lt;br/&gt;&lt;br/&gt;&lt;br/&gt;&lt;br/&gt;&lt;br/&gt;&lt;br/&gt;&lt;br/&gt;&lt;br/&gt;&lt;br/&gt;&lt;br/&gt;&lt;br/&gt;&lt;br/&gt;&lt;br/&gt;&lt;br/&gt;&lt;br/&gt;&lt;br/&gt;&lt;br/&gt;&lt;br/&gt;&lt;br/&gt;&lt;br/&gt;&lt;br/&gt;&lt;br/&gt;&lt;br/&gt;&lt;br/&gt;&lt;br/&gt;&lt;br/&gt;&lt;br/&gt;&lt;br/&gt;&lt;br/&gt;&lt;br/&gt;&lt;br/&gt;&lt;br/&gt;&lt;br/&gt;&lt;br/&gt;&lt;br/&gt;&lt;br/&gt;&lt;br/&gt;&lt;br/&gt;&lt;br/&gt;&lt;br/&gt;&lt;br/&gt;&lt;br/&gt;&lt;br/&gt;&lt;br/&gt;&lt;br/&gt;&lt;br/&gt;&lt;br/&gt;&lt;br/&gt;&lt;br/&gt;&lt;br/&gt;&lt;br/&gt;&lt;br/&gt;&lt;br/&gt;&lt;br/&gt;&lt;br/&gt;&lt;br/&gt;&lt;br/&gt;&lt;br/&gt;&lt;br/&gt;&lt;br/&gt;&lt;br/&gt;&lt;br/&gt;&lt;br/&gt;&lt;br/&gt;&lt;br/&gt;&lt;br/&gt;&lt;br/&gt;&lt;br/&gt;&lt;br/&gt;&lt;br/&gt;&lt;br/&gt;&lt;br/&gt;&lt;br/&gt;&lt;br/&gt;&lt;br/&gt;&lt;br/&gt;&lt;br/&gt;&lt;br/&gt;&lt;br/&gt;&lt;br/&gt;&lt;br/&gt;&lt;br/&gt;&lt;br/&gt;&lt;br/&gt;&lt;br/&gt;&lt;br/&gt;&lt;br/&gt;&lt;br/&gt;&lt;br/&gt;&lt;br/&gt;&lt;br/&gt;&lt;br/&gt;&lt;br/&gt;&lt;br/&gt;&lt;br/&gt;&lt;br/&gt;&lt;br/&gt;&lt;br/&gt;&lt;br/&gt;&lt;br/&gt;&lt;br/&gt;&lt;br/&gt;&lt;br/&gt;&lt;br/&gt;&lt;br/&gt;&lt;br/&gt;&lt;br/&gt;&lt;br/&gt;&lt;br/&gt;&lt;br/&gt;&lt;br/&gt;&lt;br/&gt;&lt;br/&gt;&lt;br/&gt;&lt;br/&gt;&lt;br/&gt;&lt;br/&gt;&lt;br/&gt;&lt;br/&gt;&lt;br/&gt;&lt;br/&gt;&lt;br/&gt;&lt;br/&gt;&lt;br/&gt;&lt;br/&gt;&lt;br/&gt;&lt;br/&gt;&lt;br/&gt;&lt;br/&gt;&lt;br/&gt;&lt;br/&gt;&lt;br/&gt;&lt;br/&gt;&lt;br/&gt;&lt;br/&gt;&lt;br/&gt;&lt;br/&gt;&lt;br/&gt;&lt;br/&gt;&lt;br/&gt;&lt;br/&gt;&lt;br/&gt;&lt;br/&gt;&lt;br/&gt;&lt;br/&gt;&lt;br/&gt;&lt;br/&gt;&lt;br/&gt;&lt;br/&gt;&lt;br/&gt;&lt;br/&gt;&lt;br/&gt;&lt;br/&gt;&lt;br/&gt;&lt;br/&gt;&lt;br/&gt;&lt;br/&gt;&lt;br/&gt;&lt;br/&gt;&lt;br/&gt;&lt;br/&gt;&lt;br/&gt;&lt;br/&gt;&lt;br/&gt;&lt;br/&gt;&lt;br/&gt;&lt;br/&gt;&lt;br/&gt;&lt;/p&gt;&lt;p class=&quot;MsoNormal&quot;&gt;&amp;nbsp;&lt;/p&gt;" style="text;html=1;whiteSpace=wrap;overflow=hidden;rounded=0;" vertex="1" parent="1">
          <mxGeometry x="30" y="20" width="760" height="1120" as="geometry" />
        </mxCell>
      </root>
    </mxGraphModel>
  </diagram>
</mxfile>
